<svg xmlns="http://www.w3.org/2000/svg" viewBox="0 0 200 200">
  <rect width="100%" height="100%" fill="#0f2847"/>
  <circle cx="100" cy="100" r="80" fill="none" stroke="#d4af37" stroke-width="10"/>
  <circle cx="100" cy="100" r="70" fill="none" stroke="#d4af37" stroke-width="5"/>
  <path d="M60,100 C55,70 80,60 90,80 C100,60 125,70 120,100 C125,130 100,140 90,120 C80,140 55,130 60,100 Z" fill="#d4af37"/>
  <g transform="translate(10,10)">
    <path d="M100,90 C95,75 105,75 100,90 Z" fill="#d4af37"/>
    <path d="M100,80 Q90,60 95,75 Q105,65 100,80 Z" fill="#d4af37"/>
    <path d="M80,110 Q100,130 120,110 Q100,140 80,110 Z" fill="#d4af37"/>
  </g>
  <text x="50%" y="180" font-family="Arial" font-size="20" fill="#d4af37" text-anchor="middle">SABABA</text>
</svg>